<svg width="1440" height="3631" viewBox="0 0 1440 3631" fill="none" xmlns="http://www.w3.org/2000/svg">
<path fill-rule="evenodd" clip-rule="evenodd" d="M1509.84 1422.23C1519.63 1432.73 1533.98 1436.78 1543.88 1447.18C1556.08 1460.01 1573.82 1471.95 1573.95 1489.64C1574.09 1507.27 1554.45 1517.71 1544.51 1532.27C1534.53 1546.9 1528.34 1563.3 1515.42 1575.41C1497.49 1592.22 1478.91 1623.3 1455.48 1615.76C1430.54 1607.75 1436.73 1568.37 1423.42 1545.83C1415.07 1531.7 1400.08 1523.37 1392.35 1508.89C1382.8 1491.02 1371 1472.5 1373.5 1452.42C1376.15 1431.13 1391 1413.7 1406.09 1398.44C1422.51 1381.83 1440.95 1355.89 1463.76 1361.12C1489.15 1366.94 1492.1 1403.17 1509.84 1422.23Z" fill="#FFECF2"/>
<path fill-rule="evenodd" clip-rule="evenodd" d="M1494.74 1420.92C1506.06 1433.08 1522.67 1437.76 1534.12 1449.79C1548.24 1464.64 1568.77 1478.46 1568.92 1498.92C1569.07 1519.33 1546.35 1531.41 1534.86 1548.26C1523.31 1565.17 1516.14 1584.16 1501.2 1598.17C1480.45 1617.62 1458.95 1653.58 1431.83 1644.86C1402.98 1635.58 1410.14 1590.02 1394.74 1563.94C1385.07 1547.59 1367.74 1537.95 1358.79 1521.2C1347.74 1500.52 1334.09 1479.1 1336.98 1455.86C1340.04 1431.22 1357.23 1411.05 1374.68 1393.4C1393.69 1374.17 1415.02 1344.17 1441.42 1350.22C1470.79 1356.95 1474.21 1398.87 1494.74 1420.92Z" stroke="#FFD0E0" stroke-width="2"/>
<path fill-rule="evenodd" clip-rule="evenodd" d="M-78.612 248.8C-85.8066 236.862 -98.6413 230.149 -105.962 218.288C-114.993 203.657 -129.467 188.76 -126.058 171.93C-122.659 155.147 -101.912 149.149 -89.5601 137.299C-77.1566 125.399 -67.9894 111.049 -53.2964 102.122C-32.8976 89.7292 -9.03246 63.9143 11.734 75.7589C33.8262 88.3596 20.0751 124.539 28.2217 148.618C33.3312 163.72 45.9037 174.626 50.3621 189.932C55.8643 208.822 63.373 228.775 56.9844 247.361C50.2122 267.064 32.6144 280.656 15.2313 292.14C-3.69858 304.645 -26.4009 325.603 -47.031 316.076C-69.9928 305.471 -65.5589 270.46 -78.612 248.8Z" fill="#FFECF2"/>
<path fill-rule="evenodd" clip-rule="evenodd" d="M-80.327 258.744C-88.1873 245.295 -102.531 237.927 -110.536 224.569C-120.41 208.091 -136.423 191.431 -132.204 172.173C-127.997 152.97 -104.44 145.677 -90.2321 131.898C-75.9654 118.061 -65.2988 101.503 -48.5126 91.0054C-25.2078 76.4308 2.3065 46.4818 25.4926 59.5245C50.1589 73.4 33.8358 114.939 42.5035 142.204C47.9399 159.305 61.895 171.459 66.5917 188.806C72.388 210.215 80.4264 232.792 72.8038 254.117C64.7234 276.723 44.5546 292.603 24.6748 306.075C3.026 320.745 -23.0683 345.133 -46.1515 334.728C-71.8436 323.147 -66.0662 283.144 -80.327 258.744Z" stroke="#FFD0E0" stroke-width="2"/>
<path fill-rule="evenodd" clip-rule="evenodd" d="M-79.6229 2363.26C-86.3831 2350.59 -99.2235 2343 -106.118 2330.41C-114.622 2314.88 -128.71 2298.79 -124.304 2281.66C-119.911 2264.58 -98.253 2259.53 -84.9156 2248C-71.5228 2236.43 -61.3271 2222.16 -45.7388 2213.76C-24.0971 2202.11 1.82775 2176.84 22.5507 2190.13C44.5965 2204.27 28.5185 2240.74 35.6082 2265.94C40.0548 2281.75 52.4011 2293.64 56.1672 2309.62C60.815 2329.34 67.4693 2350.26 59.9046 2369.03C51.8856 2388.93 33.0602 2401.97 14.5686 2412.85C-5.56851 2424.7 -30.0375 2445.04 -50.7442 2434.13C-73.7912 2422 -67.3578 2386.23 -79.6229 2363.26Z" fill="#FFECF2"/>
<path fill-rule="evenodd" clip-rule="evenodd" d="M-87.3973 2375.45C-95.2196 2360.8 -110.077 2352.01 -118.055 2337.45C-127.895 2319.48 -144.196 2300.85 -139.098 2281.04C-134.014 2261.28 -108.954 2255.42 -93.5215 2242.09C-78.0247 2228.69 -66.2273 2212.18 -48.1901 2202.47C-23.1485 2188.99 6.84908 2159.75 30.8275 2175.13C56.3368 2191.49 37.733 2233.69 45.9364 2262.85C51.0816 2281.14 65.3674 2294.89 69.7251 2313.38C75.1031 2336.2 82.8029 2360.41 74.0497 2382.13C64.7709 2405.16 42.9881 2420.24 21.5915 2432.83C-1.70913 2446.54 -30.0222 2470.08 -53.9818 2457.46C-80.6495 2443.42 -73.2054 2402.03 -87.3973 2375.45Z" stroke="#FFD0E0" stroke-width="2"/>
<path fill-rule="evenodd" clip-rule="evenodd" d="M1387.9 3452.34C1382.62 3439 1370.72 3430.01 1365.29 3416.72C1358.6 3400.32 1346.42 3382.74 1352.73 3366.22C1359.03 3349.75 1381.12 3347.17 1395.67 3337.23C1410.29 3327.24 1422.03 3314.22 1438.47 3307.64C1461.29 3298.51 1489.91 3276.33 1509 3291.88C1529.3 3308.43 1509.2 3342.85 1513.4 3368.68C1516.03 3384.89 1526.95 3398.1 1528.89 3414.4C1531.27 3434.52 1535.52 3456.06 1525.88 3473.86C1515.66 3492.73 1495.48 3503.55 1475.88 3512.27C1454.53 3521.77 1427.92 3539.21 1408.58 3526.03C1387.05 3511.37 1397.49 3476.56 1387.9 3452.34Z" fill="#FFECF2"/>
<path fill-rule="evenodd" clip-rule="evenodd" d="M1378.8 3463.58C1372.68 3448.14 1358.91 3437.73 1352.63 3422.35C1344.89 3403.39 1330.8 3383.04 1338.1 3363.93C1345.39 3344.87 1370.95 3341.89 1387.79 3330.38C1404.7 3318.82 1418.29 3303.76 1437.31 3296.14C1463.72 3285.58 1496.83 3259.92 1518.92 3277.91C1542.41 3297.05 1519.16 3336.88 1524.01 3366.78C1527.05 3385.53 1539.69 3400.81 1541.93 3419.68C1544.69 3442.96 1549.61 3467.88 1538.45 3488.47C1526.63 3510.3 1503.28 3522.83 1480.6 3532.92C1455.9 3543.91 1425.11 3564.09 1402.73 3548.84C1377.82 3531.88 1389.89 3491.6 1378.8 3463.58Z" stroke="#FFD0E0" stroke-width="2"/>
</svg>
